<?xml version="1.0" encoding="UTF-8"?>
<!DOCTYPE svg PUBLIC "-//W3C//DTD SVG 1.1//EN" "http://www.w3.org/Graphics/SVG/1.1/DTD/svg11.dtd">
<svg version="1.2" width="156mm" height="20mm" viewBox="0 0 15600 2000" preserveAspectRatio="xMidYMid" fill-rule="evenodd" stroke-width="28.222" stroke-linejoin="round" xmlns="http://www.w3.org/2000/svg" xmlns:ooo="http://xml.openoffice.org/svg/export" xmlns:xlink="http://www.w3.org/1999/xlink" xmlns:presentation="http://sun.com/xmlns/staroffice/presentation" xmlns:smil="http://www.w3.org/2001/SMIL20/" xmlns:anim="urn:oasis:names:tc:opendocument:xmlns:animation:1.0" xmlns:svg="urn:oasis:names:tc:opendocument:xmlns:svg-compatible:1.0" xml:space="preserve">
 <defs class="ClipPathGroup">
  <clipPath id="presentation_clip_path" clipPathUnits="userSpaceOnUse">
   <rect x="0" y="0" width="15600" height="2000"/>
  </clipPath>
  <clipPath id="presentation_clip_path_shrink" clipPathUnits="userSpaceOnUse">
   <rect x="15" y="2" width="15569" height="1996"/>
  </clipPath>
 </defs>
 <defs class="TextShapeIndex">
  <g ooo:slide="id1" ooo:id-list="id3 id4 id5 id6 id7 id8 id9 id10 id11 id12 id13 id14 id15"/>
 </defs>
 <defs class="EmbeddedBulletChars">
  <g id="bullet-char-template-57356" transform="scale(0.00048828125,-0.00048828125)">
   <path d="M 580,1141 L 1163,571 580,0 -4,571 580,1141 Z"/>
  </g>
  <g id="bullet-char-template-57354" transform="scale(0.00048828125,-0.00048828125)">
   <path d="M 8,1128 L 1137,1128 1137,0 8,0 8,1128 Z"/>
  </g>
  <g id="bullet-char-template-10146" transform="scale(0.00048828125,-0.00048828125)">
   <path d="M 174,0 L 602,739 174,1481 1456,739 174,0 Z M 1358,739 L 309,1346 659,739 1358,739 Z"/>
  </g>
  <g id="bullet-char-template-10132" transform="scale(0.00048828125,-0.00048828125)">
   <path d="M 2015,739 L 1276,0 717,0 1260,543 174,543 174,936 1260,936 717,1481 1274,1481 2015,739 Z"/>
  </g>
  <g id="bullet-char-template-10007" transform="scale(0.00048828125,-0.00048828125)">
   <path d="M 0,-2 C -7,14 -16,27 -25,37 L 356,567 C 262,823 215,952 215,954 215,979 228,992 255,992 264,992 276,990 289,987 310,991 331,999 354,1012 L 381,999 492,748 772,1049 836,1024 860,1049 C 881,1039 901,1025 922,1006 886,937 835,863 770,784 769,783 710,716 594,584 L 774,223 C 774,196 753,168 711,139 L 727,119 C 717,90 699,76 672,76 641,76 570,178 457,381 L 164,-76 C 142,-110 111,-127 72,-127 30,-127 9,-110 8,-76 1,-67 -2,-52 -2,-32 -2,-23 -1,-13 0,-2 Z"/>
  </g>
  <g id="bullet-char-template-10004" transform="scale(0.00048828125,-0.00048828125)">
   <path d="M 285,-33 C 182,-33 111,30 74,156 52,228 41,333 41,471 41,549 55,616 82,672 116,743 169,778 240,778 293,778 328,747 346,684 L 369,508 C 377,444 397,411 428,410 L 1163,1116 C 1174,1127 1196,1133 1229,1133 1271,1133 1292,1118 1292,1087 L 1292,965 C 1292,929 1282,901 1262,881 L 442,47 C 390,-6 338,-33 285,-33 Z"/>
  </g>
  <g id="bullet-char-template-9679" transform="scale(0.00048828125,-0.00048828125)">
   <path d="M 813,0 C 632,0 489,54 383,161 276,268 223,411 223,592 223,773 276,916 383,1023 489,1130 632,1184 813,1184 992,1184 1136,1130 1245,1023 1353,916 1407,772 1407,592 1407,412 1353,268 1245,161 1136,54 992,0 813,0 Z"/>
  </g>
  <g id="bullet-char-template-8226" transform="scale(0.00048828125,-0.00048828125)">
   <path d="M 346,457 C 273,457 209,483 155,535 101,586 74,649 74,723 74,796 101,859 155,911 209,963 273,989 346,989 419,989 480,963 531,910 582,859 608,796 608,723 608,648 583,586 532,535 482,483 420,457 346,457 Z"/>
  </g>
  <g id="bullet-char-template-8211" transform="scale(0.00048828125,-0.00048828125)">
   <path d="M -4,459 L 1135,459 1135,606 -4,606 -4,459 Z"/>
  </g>
  <g id="bullet-char-template-61548" transform="scale(0.00048828125,-0.00048828125)">
   <path d="M 173,740 C 173,903 231,1043 346,1159 462,1274 601,1332 765,1332 928,1332 1067,1274 1183,1159 1299,1043 1357,903 1357,740 1357,577 1299,437 1183,322 1067,206 928,148 765,148 601,148 462,206 346,322 231,437 173,577 173,740 Z"/>
  </g>
 </defs>
 <g>
  <g id="id2" class="Master_Slide">
   <g id="bg-id2" class="Background"/>
   <g id="bo-id2" class="BackgroundObjects"/>
  </g>
 </g>
 <g class="SlideGroup">
  <g>
   <g id="container-id1">
    <g id="id1" class="Slide" clip-path="url(#presentation_clip_path)">
     <g class="Page">
      <g class="Group">
       <g class="com.sun.star.drawing.ClosedBezierShape">
        <g id="id3">
         <rect class="BoundingBox" stroke="none" fill="none" x="11519" y="-1" width="1939" height="1978"/>
         <path fill="rgb(255,255,255)" stroke="none" d="M 13344,1046 L 12893,1046 12893,673 13457,673 13457,430 12893,430 12893,-1 12645,-1 12645,430 12126,430 12126,673 12645,673 12645,1046 12237,1046 12237,1931 13344,1931 13344,1046 Z M 12184,265 C 12158,249 12127,229 12090,206 12052,183 12013,159 11971,134 L 11952,121 C 11922,103 11892,85 11863,68 11833,50 11807,35 11783,20 L 11637,196 C 11677,223 11721,253 11771,286 11821,319 11868,351 11915,382 11961,414 11998,440 12027,460 L 12184,265 Z M 12057,810 C 12025,794 11985,773 11937,749 11889,724 11840,699 11789,674 11739,648 11695,626 11656,606 L 11519,791 C 11559,814 11605,840 11656,869 11707,898 11756,926 11803,953 11851,980 11889,1003 11920,1021 L 12057,810 Z M 12181,1295 L 11997,1126 C 11979,1158 11960,1191 11939,1225 11919,1260 11899,1294 11877,1330 L 11866,1349 C 11865,1351 11864,1353 11863,1354 11862,1356 11861,1358 11860,1360 L 11843,1390 C 11796,1469 11751,1545 11707,1617 11664,1689 11626,1750 11594,1802 L 11808,1976 C 11826,1945 11844,1912 11864,1877 11884,1842 11904,1806 11924,1770 L 11935,1750 C 11977,1672 12020,1594 12062,1516 12105,1437 12145,1364 12181,1295 Z M 12484,1695 L 12484,1283 13078,1283 13078,1695 12484,1695 Z"/>
        </g>
       </g>
       <g class="com.sun.star.drawing.PolyPolygonShape">
        <g id="id4">
         <rect class="BoundingBox" stroke="none" fill="none" x="14504" y="42" width="1097" height="1908"/>
         <path fill="rgb(255,255,255)" stroke="none" d="M 15600,1703 L 15160,1703 15160,924 15527,924 15527,682 15160,682 15160,42 14903,42 14903,682 14573,682 14573,924 14903,924 14903,1703 14504,1703 14504,1948 15600,1948 15600,1703 Z"/>
        </g>
       </g>
       <g class="com.sun.star.drawing.PolyPolygonShape">
        <g id="id5">
         <rect class="BoundingBox" stroke="none" fill="none" x="13751" y="132" width="732" height="220"/>
         <path fill="rgb(255,255,255)" stroke="none" d="M 14482,132 L 13751,132 13751,351 14482,351 14482,132 Z"/>
        </g>
       </g>
       <g class="com.sun.star.drawing.PolyPolygonShape">
        <g id="id6">
         <rect class="BoundingBox" stroke="none" fill="none" x="13680" y="551" width="845" height="1450"/>
         <path fill="rgb(255,255,255)" stroke="none" d="M 14231,770 L 14523,770 14523,551 13680,551 13680,770 13999,770 13999,2000 14231,2000 14231,770 Z"/>
        </g>
       </g>
       <g class="com.sun.star.drawing.PolyPolygonShape">
        <g id="id7">
         <rect class="BoundingBox" stroke="none" fill="none" x="14315" y="879" width="178" height="797"/>
         <path fill="rgb(255,255,255)" stroke="none" d="M 14491,879 L 14315,879 14315,1675 14491,1675 14491,879 Z"/>
        </g>
       </g>
       <g class="com.sun.star.drawing.PolyPolygonShape">
        <g id="id8">
         <rect class="BoundingBox" stroke="none" fill="none" x="13719" y="879" width="177" height="797"/>
         <path fill="rgb(255,255,255)" stroke="none" d="M 13895,879 L 13719,879 13719,1675 13895,1675 13895,879 Z"/>
        </g>
       </g>
      </g>
      <g class="Group">
       <g class="com.sun.star.drawing.ClosedBezierShape">
        <g id="id9">
         <rect class="BoundingBox" stroke="none" fill="none" x="0" y="171" width="1739" height="1823"/>
         <path fill="rgb(255,255,255)" stroke="none" d="M 0,1082 C 0,908 41,751 122,613 203,474 313,366 452,288 592,211 744,172 910,172 1099,172 1268,218 1416,312 1564,405 1671,537 1737,708 L 1386,708 C 1340,614 1276,544 1194,497 1112,451 1017,428 910,428 792,428 687,455 595,508 502,561 430,637 378,736 326,835 300,950 300,1082 300,1214 326,1329 378,1428 430,1527 502,1604 595,1658 687,1712 792,1739 910,1739 1017,1739 1112,1715 1194,1669 1276,1623 1340,1553 1386,1459 L 1737,1459 C 1671,1630 1564,1762 1416,1854 1268,1946 1099,1992 910,1992 742,1992 590,1954 451,1876 313,1798 203,1690 122,1551 41,1413 0,1256 0,1082 Z"/>
        </g>
       </g>
       <g class="com.sun.star.drawing.ClosedBezierShape">
        <g id="id10">
         <rect class="BoundingBox" stroke="none" fill="none" x="1924" y="0" width="1442" height="2002"/>
         <path fill="rgb(255,255,255)" stroke="none" d="M 2632,2000 C 2499,2000 2378,1970 2271,1909 2163,1848 2078,1763 2017,1653 1955,1542 1925,1415 1925,1269 1925,1126 1956,998 2019,887 2083,776 2169,691 2278,631 2388,571 2510,541 2645,541 2780,541 2902,571 3011,631 3120,691 3207,776 3270,887 3333,998 3365,1126 3365,1269 3365,1413 3332,1540 3267,1651 3202,1762 3114,1848 3002,1909 2890,1970 2767,2000 2632,2000 Z M 2632,1746 C 2707,1746 2777,1728 2843,1692 2909,1657 2962,1603 3003,1531 3044,1459 3065,1372 3065,1269 3065,1167 3045,1080 3006,1009 2967,938 2915,885 2850,849 2785,813 2715,795 2639,795 2564,795 2495,813 2431,849 2367,885 2316,938 2278,1009 2241,1080 2222,1167 2222,1269 2222,1421 2261,1539 2338,1622 2416,1705 2514,1746 2632,1746 Z M 2645,221 L 2278,441 2278,213 2645,0 3011,213 3011,441 2645,221 Z"/>
        </g>
       </g>
       <g class="com.sun.star.drawing.ClosedBezierShape">
        <g id="id11">
         <rect class="BoundingBox" stroke="none" fill="none" x="3552" y="171" width="1248" height="1825"/>
         <path fill="rgb(255,255,255)" stroke="none" d="M 4183,1995 C 4064,1995 3956,1974 3860,1932 3765,1890 3689,1831 3635,1754 3580,1677 3553,1587 3553,1485 L 3865,1485 C 3872,1562 3903,1625 3956,1674 4010,1724 4086,1749 4183,1749 4284,1749 4362,1724 4419,1676 4475,1627 4503,1564 4503,1487 4503,1427 4486,1379 4451,1341 4416,1303 4372,1274 4320,1254 4268,1233 4196,1211 4104,1187 3987,1156 3893,1125 3821,1094 3748,1062 3686,1013 3635,946 3584,880 3558,791 3558,679 3558,577 3584,487 3635,410 3686,333 3758,274 3850,233 3942,192 4049,172 4170,172 4343,172 4484,215 4594,301 4704,388 4766,506 4778,656 L 4455,656 C 4450,591 4419,536 4362,490 4306,444 4232,421 4140,421 4056,421 3987,442 3935,485 3882,527 3855,589 3855,669 3855,724 3872,769 3905,804 3938,839 3981,867 4032,887 4083,908 4153,930 4242,954 4360,986 4456,1019 4530,1051 4605,1084 4668,1134 4720,1201 4772,1269 4798,1359 4798,1472 4798,1562 4774,1648 4725,1728 4676,1809 4605,1873 4512,1922 4419,1971 4309,1995 4183,1995 Z"/>
        </g>
       </g>
       <g class="com.sun.star.drawing.ClosedBezierShape">
        <g id="id12">
         <rect class="BoundingBox" stroke="none" fill="none" x="5086" y="79" width="1293" height="1900"/>
         <path fill="rgb(255,255,255)" stroke="none" d="M 5816,541 C 5924,541 6020,564 6105,610 6189,656 6256,725 6305,815 6353,906 6378,1015 6378,1144 L 6378,1977 6088,1977 6088,1187 C 6088,1061 6056,964 5993,896 5930,829 5844,795 5734,795 5625,795 5538,829 5474,896 5410,964 5378,1061 5378,1187 L 5378,1977 5086,1977 5086,79 5378,79 5378,728 C 5428,668 5491,622 5567,590 5643,557 5726,541 5816,541 Z"/>
        </g>
       </g>
       <g class="com.sun.star.drawing.ClosedBezierShape">
        <g id="id13">
         <rect class="BoundingBox" stroke="none" fill="none" x="6593" y="541" width="1452" height="1461"/>
         <path fill="rgb(255,255,255)" stroke="none" d="M 6593,1264 C 6593,1122 6623,997 6682,887 6741,778 6821,693 6923,632 7024,571 7137,541 7260,541 7371,541 7468,563 7550,606 7633,650 7700,704 7749,769 L 7749,564 8044,564 8044,1977 7749,1977 7749,1767 C 7700,1833 7632,1889 7547,1933 7461,1978 7364,2000 7255,2000 7133,2000 7022,1969 6921,1907 6821,1844 6741,1757 6682,1645 6623,1533 6593,1406 6593,1264 Z M 7749,1269 C 7749,1172 7729,1087 7689,1015 7649,944 7596,889 7531,851 7466,814 7396,795 7321,795 7246,795 7176,813 7111,850 7046,887 6994,941 6953,1012 6913,1083 6893,1167 6893,1264 6893,1362 6913,1447 6953,1521 6994,1594 7047,1650 7112,1689 7178,1727 7248,1746 7321,1746 7396,1746 7466,1727 7531,1690 7596,1652 7649,1597 7689,1524 7729,1452 7749,1367 7749,1269 Z"/>
        </g>
       </g>
       <g class="com.sun.star.drawing.ClosedBezierShape">
        <g id="id14">
         <rect class="BoundingBox" stroke="none" fill="none" x="8370" y="541" width="716" height="1438"/>
         <path fill="rgb(255,255,255)" stroke="none" d="M 8662,769 C 8705,697 8762,641 8832,601 8903,561 8987,541 9085,541 L 9085,844 9011,844 C 8896,844 8809,873 8750,931 8692,989 8662,1090 8662,1233 L 8662,1977 8370,1977 8370,564 8662,564 8662,769 Z"/>
        </g>
       </g>
       <g class="com.sun.star.drawing.ClosedBezierShape">
        <g id="id15">
         <rect class="BoundingBox" stroke="none" fill="none" x="9198" y="541" width="1393" height="1461"/>
         <path fill="rgb(255,255,255)" stroke="none" d="M 10590,1236 C 10590,1289 10587,1337 10580,1380 L 9501,1380 C 9510,1492 9551,1583 9627,1651 9702,1720 9794,1754 9903,1754 10060,1754 10171,1688 10236,1556 L 10552,1556 C 10509,1686 10432,1793 10320,1876 10208,1959 10069,2000 9903,2000 9768,2000 9648,1970 9541,1909 9434,1848 9350,1763 9290,1653 9229,1542 9199,1415 9199,1269 9199,1124 9228,996 9287,886 9346,776 9429,691 9536,631 9642,571 9765,541 9903,541 10037,541 10155,570 10259,628 10364,686 10445,768 10503,873 10561,978 10590,1099 10590,1236 Z M 10285,1144 C 10283,1036 10245,950 10170,885 10095,820 10002,787 9890,787 9790,787 9703,819 9632,883 9560,947 9517,1034 9504,1144 L 10285,1144 Z"/>
        </g>
       </g>
      </g>
     </g>
    </g>
   </g>
  </g>
 </g>
</svg>